<?xml version="1.0" standalone="no"?><!DOCTYPE svg PUBLIC "-//W3C//DTD SVG 1.1//EN" "http://www.w3.org/Graphics/SVG/1.1/DTD/svg11.dtd"><svg t="1615092101062" class="icon" viewBox="0 0 1026 1024" version="1.1" xmlns="http://www.w3.org/2000/svg" p-id="1180" xmlns:xlink="http://www.w3.org/1999/xlink" width="200.390625" height="200"><defs><style type="text/css"></style></defs><path d="M985.770667 36.864h-181.248a40.277333 40.277333 0 0 0 0 80.554667H887.466667L663.893333 341.333333l-273.066666-273.066666a40.277333 40.277333 0 0 0-57.344 0L11.605333 390.826667A40.277333 40.277333 0 0 0 68.266667 447.488l293.888-293.205333 273.066666 273.066666a39.936 39.936 0 0 0 56.661334 0l253.610666-252.928v83.968a40.277333 40.277333 0 0 0 80.554667 0V77.141333a40.277333 40.277333 0 0 0-40.277333-40.277333zM115.370667 517.12a52.906667 52.906667 0 0 0-53.248 52.906667v363.861333a53.248 53.248 0 0 0 106.496 0V570.026667a52.906667 52.906667 0 0 0-53.248-52.906667z" p-id="1181"></path><path d="M381.269333 326.997333a53.248 53.248 0 0 0-53.248 53.248v553.642667a53.248 53.248 0 1 0 106.154667 0V380.245333a52.906667 52.906667 0 0 0-52.906667-53.248zM648.533333 517.12a52.906667 52.906667 0 0 0-53.248 52.906667v363.861333a53.248 53.248 0 0 0 106.496 0V570.026667A52.906667 52.906667 0 0 0 648.533333 517.12zM912.725333 389.461333A53.248 53.248 0 0 0 859.477333 443.733333v490.154667a53.248 53.248 0 1 0 106.154667 0V443.733333a52.906667 52.906667 0 0 0-52.906667-54.272z" p-id="1182"></path></svg>