<?xml version="1.0" standalone="no"?><!DOCTYPE svg PUBLIC "-//W3C//DTD SVG 1.1//EN" "http://www.w3.org/Graphics/SVG/1.1/DTD/svg11.dtd"><svg t="1615092110636" class="icon" viewBox="0 0 1024 1024" version="1.1" xmlns="http://www.w3.org/2000/svg" p-id="1452" xmlns:xlink="http://www.w3.org/1999/xlink" width="200" height="200"><defs><style type="text/css"></style></defs><path d="M55.978667 794.965333V716.8h461.482666a300.714667 300.714667 0 0 1 13.312-55.637333h-74.410666v-283.306667h100.352v228.693333A291.498667 291.498667 0 0 1 614.4 539.989333v-162.133333h98.645333v105.813333a251.562667 251.562667 0 0 1 55.978667-12.288v-93.525333h61.44a27.648 27.648 0 0 0 27.648-27.648V254.976a26.624 26.624 0 0 0-16.384-25.258667l-401.749333-180.906666a30.378667 30.378667 0 0 0-23.210667 0L16.384 229.717333a27.648 27.648 0 0 0-16.384 25.258667v95.232a27.989333 27.989333 0 0 0 8.192 19.456 26.624 26.624 0 0 0 19.797333 8.192h61.44v283.306667H27.989333a26.624 26.624 0 0 0-19.797333 8.192 27.989333 27.989333 0 0 0-8.192 19.456v134.144a27.989333 27.989333 0 0 0 27.989333 27.989333h503.808a273.066667 273.066667 0 0 1-13.994666-55.978667z m188.074666-133.802666H145.408v-283.306667h98.645333z m156.330667 0h-102.4v-283.306667h102.4zM55.978667 322.218667V273.066667l372.394666-167.594667L800.768 273.066667v49.152z" p-id="1453"></path><path d="M800.768 531.797333a225.621333 225.621333 0 0 0-81.92 15.701334l-53.589333-27.989334V580.266667a222.208 222.208 0 1 0 136.533333-46.762667z m0 381.952a158.72 158.72 0 1 1 158.72-158.72 158.72 158.72 0 0 1-158.72 158.72z" p-id="1454"></path><path d="M707.584 730.112a24.917333 24.917333 0 0 0 0 49.834667 24.917333 24.917333 0 0 0 0-49.834667zM800.768 730.112a24.917333 24.917333 0 1 0 0 49.834667 24.917333 24.917333 0 0 0 0-49.834667zM893.610667 730.112a24.917333 24.917333 0 0 0 0 49.834667 24.917333 24.917333 0 1 0 0-49.834667z" p-id="1455"></path></svg>