<?xml version="1.0" standalone="no"?><!DOCTYPE svg PUBLIC "-//W3C//DTD SVG 1.1//EN" "http://www.w3.org/Graphics/SVG/1.1/DTD/svg11.dtd"><svg t="1615091853246" class="icon" viewBox="0 0 1024 1024" version="1.1" xmlns="http://www.w3.org/2000/svg" p-id="1060" xmlns:xlink="http://www.w3.org/1999/xlink" width="200" height="200"><defs><style type="text/css"></style></defs><path d="M870.511 341.606L657.607 128.702l72.854-72.854c7.778-7.778 20.506-7.778 28.284 0l184.62 184.62c7.778 7.778 7.778 20.506 0 28.284l-72.854 72.854zM613.741 171.833L25.228 760.345l0.25 193.379c0.014 11.045 8.965 19.997 20.011 20.011l193.379 0.25 588.513-588.513-213.64-213.639zM561.29 595.504l-184.62 184.62c-7.778 7.778-20.506 7.778-28.284 0l-15.214-15.214c-7.778-7.778-7.778-20.506 0-28.284l184.62-184.62c7.778-7.778 20.506-7.778 28.284 0l15.214 15.214c7.778 7.778 7.778 20.506 0 28.284zM978.771 889.985H484.591a44.25 44.25 0 0 0-31.287 12.959l-50.792 50.792c-7.472 7.472-2.18 20.249 8.387 20.249h567.872c11 0 20-9 20-20v-44c0-11-9-20-20-20z" fill="#4C4C4C" p-id="1061"></path></svg>