<?xml version="1.0" standalone="no"?><!DOCTYPE svg PUBLIC "-//W3C//DTD SVG 1.1//EN" "http://www.w3.org/Graphics/SVG/1.1/DTD/svg11.dtd"><svg t="1615092107268" class="icon" viewBox="0 0 1024 1024" version="1.1" xmlns="http://www.w3.org/2000/svg" p-id="1315" xmlns:xlink="http://www.w3.org/1999/xlink" width="200" height="200"><defs><style type="text/css"></style></defs><path d="M961.536 259.072l-187.392-148.48a247.808 247.808 0 0 0-134.144-46.762667h-63.829333v96.256a32.085333 32.085333 0 0 1-32.085334 31.744h-64.170666a32.085333 32.085333 0 0 1-32.085334-31.744V63.829333h-63.829333a250.197333 250.197333 0 0 0-132.096 46.08L63.146667 255.658667A176.810667 176.810667 0 0 0 0 384v64.170667A210.261333 210.261333 0 0 0 54.613333 580.266667l136.533334 136.533333v114.688a128 128 0 0 0 128 128h384.682666a128.341333 128.341333 0 0 0 128.341334-128v-128L966.656 580.266667A196.608 196.608 0 0 0 1024 447.829333v-59.733333a181.248 181.248 0 0 0-62.464-129.024z m0 188.757333a136.533333 136.533333 0 0 1-36.864 83.968l-91.136 84.650667v-168.618667H768v384a64.170667 64.170667 0 0 1-64.170667 64.170667H320.170667a64.170667 64.170667 0 0 1-64.170667-64.170667V447.829333H192.170667v178.858667l-92.16-92.16a148.48 148.48 0 0 1-36.181334-86.357333v-64.170667A117.418667 117.418667 0 0 1 102.4 307.2l188.416-146.773333a188.416 188.416 0 0 1 93.184-32.085334v31.744a95.914667 95.914667 0 0 0 95.914667 95.914667h64.170666a95.914667 95.914667 0 0 0 95.914667-95.914667v-32.085333a182.954667 182.954667 0 0 1 94.208 34.133333L921.6 309.248a119.808 119.808 0 0 1 38.229333 78.848z" p-id="1316"></path><path d="M569.685333 369.322667m23.893334 0l75.434666 0q23.893333 0 23.893334 23.893333l0 109.226667q0 23.893333-23.893334 23.893333l-75.434666 0q-23.893333 0-23.893334-23.893333l0-109.226667q0-23.893333 23.893334-23.893333Z" p-id="1317"></path></svg>