<?xml version="1.0" standalone="no"?><!DOCTYPE svg PUBLIC "-//W3C//DTD SVG 1.1//EN" "http://www.w3.org/Graphics/SVG/1.1/DTD/svg11.dtd"><svg t="1615092089225" class="icon" viewBox="0 0 1024 1024" version="1.1" xmlns="http://www.w3.org/2000/svg" p-id="1044" xmlns:xlink="http://www.w3.org/1999/xlink" width="200" height="200"><defs><style type="text/css"></style></defs><path d="M261.12 292.522667c19.797333 72.704 92.501333 72.704 118.784 0 13.312 0 19.797333-13.312 19.797333-26.282667s0-26.624-6.485333-26.624a59.392 59.392 0 0 0-66.218667-66.218667c-52.565333 6.826667-72.362667 26.624-72.362666 72.704-13.312 0-13.312 13.312-6.826667 26.624 0 6.485333 6.826667 19.797333 13.312 19.797334z" p-id="1045"></path><path d="M427.349333 744.106667V716.8a53.930667 53.930667 0 0 0 54.272-54.613333l209.92-211.626667a14.336 14.336 0 1 0-20.48-20.48l-189.44 191.146667v-184.32a81.237333 81.237333 0 0 0-68.266666-81.92h-26.965334L325.632 477.866667l-60.757333-122.88h-34.133334a92.842667 92.842667 0 0 0-68.266666 81.92v218.453333a53.589333 53.589333 0 0 0 54.272 54.613333v27.306667z" p-id="1046"></path><path d="M149.504 709.973333A98.645333 98.645333 0 0 1 136.533333 662.186667v-20.48a77.141333 77.141333 0 0 1-75.093333-81.92v-409.6A82.602667 82.602667 0 0 1 142.677333 68.266667h716.8a82.602667 82.602667 0 0 1 82.602667 81.92v409.6a82.602667 82.602667 0 0 1-81.237333 81.92h-318.464l-26.965334 27.306666a34.133333 34.133333 0 0 1-13.653333 27.306667h359.082667a151.210667 151.210667 0 0 0 149.162666-150.186667V150.186667A151.210667 151.210667 0 0 0 860.842667 0H149.504A150.869333 150.869333 0 0 0 0 150.186667v409.6a150.869333 150.869333 0 0 0 149.504 150.186666zM210.602667 798.72H95.232A97.28 97.28 0 0 0 0 894.293333V1024h312.32v-129.706667a98.645333 98.645333 0 0 0-101.717333-95.573333zM562.858667 798.72h-108.544a97.621333 97.621333 0 0 0-94.890667 95.573333V1024h311.637333v-129.706667a109.226667 109.226667 0 0 0-108.202666-95.573333zM921.6 798.72h-115.029333a97.28 97.28 0 0 0-94.890667 95.573333V1024H1024v-129.706667a108.202667 108.202667 0 0 0-102.4-95.573333z" p-id="1047"></path></svg>