<svg width="1247" id="page100" ed:name="页面-1" xmlns="http://www.w3.org/2000/svg" xmlns:ed="https://www.edrawsoft.cn/xml/2017/SVGExtensions/" xmlns:xlink="http://www.w3.org/1999/xlink" ed:vSpacing="30" ed:hSpacing="30" height="1329" xmlns:ev="http://www.w3.org/2001/xml-events" viewBox="0 0 1247 1329"><style type="text/css"><![CDATA[
g[ed\:togtopicid],g[ed\:hyperlink],g[ed\:comment],g[ed\:note] {cursor:pointer;}
g[id] {-moz-user-select: none;-ms-user-select: none;user-select: none;}
svg text::selection,svg tspan::selection{background-color: #4285f4;color: #ffffff;fill: #ffffff;}
.st5 {fill:#000000;font-family:微软雅黑;font-size:10pt}
.st4 {fill:#303030;font-family:微软雅黑;font-size:14pt;font-weight:bold}
.st1 {fill:#454545;font-family:微软雅黑;font-size:10pt}
.st2 {fill:#ffffff;font-family:微软雅黑;font-size:18pt;font-weight:bold}
.st3 {font-size:21.18pt}
]]></style><defs/><rect width="1247" fill="#ffffff" y="0" height="1329" x="0"/><g id="233" ed:toid="304" ed:type="relation" ed:fromid="332" transform="matrix(1,0,0,1,779.46,628.5)"><path d="M9.3,-280C-223,45.6,-190,100.6,-9.3,280" fill="none"/><path d="M9.3,-280C-220.4,42,-190.7,99.3,-15.2,274.2" fill="none" stroke-width="2" stroke-linecap="round" stroke-linejoin="round" stroke-dasharray="3,3" stroke="#53a2f0"/><path d="M-9.3,280L-12.3,269.1C-12.7,270.9,-13.7,272.7,-15.2,274.2C-16.6,275.6,-18.4,276.6,-20.2,277.1L-9.3,280" fill="#53a2f0" stroke-width="1" stroke-linecap="round" stroke="#53a2f0"/></g><g id="234" ed:toid="304" ed:type="relation" ed:fromid="338" transform="matrix(1,0,0,1,825.66,736.83)"><path d="M53.3,-171.7C-144.2,-103.5,-217.2,-25.5,-53.3,171.7" fill="none"/><path d="M53.3,-171.7C-142,-104.3,-215.6,-27.2,-58.6,165.3" fill="none" stroke-width="2" stroke-linecap="round" stroke-linejoin="round" stroke-dasharray="3,3" stroke="#53a2f0"/><path d="M-53.3,171.7L-55.2,160.5C-55.9,162.3,-57,164,-58.6,165.3C-60.2,166.6,-62,167.4,-63.9,167.7L-53.3,171.7" fill="#53a2f0" stroke-width="1" stroke-linecap="round" stroke="#53a2f0"/><rect width="44" fill="#ffffff" y="-57.9" height="19" x="-158.5"/><text class="st1"><tspan textLength="44" y="-43.897" x="-158" style="white-space:pre">priority</tspan></text></g><g id="237" ed:toid="310" ed:type="relation" ed:fromid="308" transform="matrix(1,0,0,1,869.49,690.5)"><path d="M-59.5,-311C-60,-179.4,102,181.6,59.5,311" fill="none"/><path d="M-59.5,-311C-60,-182,95.7,167.4,61.8,303" fill="none" stroke-width="2" stroke-linecap="round" stroke-linejoin="round" stroke-dasharray="3,3" stroke="#53a2f0"/><path d="M59.5,311L67.7,303.1C65.8,303.6,63.8,303.6,61.8,303C59.8,302.5,58.1,301.4,56.8,300L59.5,311" fill="#53a2f0" stroke-width="1" stroke-linecap="round" stroke="#53a2f0"/></g><g id="238" ed:toid="326" ed:type="relation" ed:fromid="334" transform="matrix(1,0,0,1,936.86,721.5)"><path d="M-49.5,-311C-40.4,-180.4,190.4,214.4,49.5,311" fill="none"/><path d="M-49.5,-311C-40.5,-182.6,182.9,201.5,56.1,306" fill="none" stroke-width="2" stroke-linecap="round" stroke-linejoin="round" stroke-dasharray="3,3" stroke="#53a2f0"/><path d="M49.5,311L60.7,309.6C59,308.9,57.4,307.7,56.1,306C54.9,304.4,54.2,302.5,53.9,300.6L49.5,311" fill="#53a2f0" stroke-width="1" stroke-linecap="round" stroke="#53a2f0"/></g><g id="239" ed:toid="320" ed:type="relation" ed:fromid="367" transform="matrix(1,0,0,1,952.1,752.5)"><path d="M-50.4,-311C-20.6,-177.4,179.9,172.8,50.4,311" fill="none"/><path d="M-50.4,-311C-21,-179.4,174,162.6,55.9,304.8" fill="none" stroke-width="2" stroke-linecap="round" stroke-linejoin="round" stroke-dasharray="3,3" stroke="#53a2f0"/><path d="M50.4,311L61.1,307.4C59.2,307,57.4,306.2,55.9,304.8C54.3,303.4,53.2,301.7,52.6,299.9L50.4,311" fill="#53a2f0" stroke-width="1" stroke-linecap="round" stroke="#53a2f0"/></g><g id="240" ed:toid="328" ed:type="relation" ed:fromid="336" transform="matrix(1,0,0,1,1038.11,783.5)"><path d="M-24.8,-311C84.5,-266.1,189.2,214.7,24.8,311" fill="none"/><path d="M-24.8,-311C82.9,-266.7,186.1,200.9,31.8,306.6" fill="none" stroke-width="2" stroke-linecap="round" stroke-linejoin="round" stroke-dasharray="3,3" stroke="#53a2f0"/><path d="M24.8,311L36.1,310.5C34.4,309.6,32.9,308.3,31.8,306.6C30.7,304.8,30.1,302.9,30.1,301L24.8,311" fill="#53a2f0" stroke-width="1" stroke-linecap="round" stroke="#53a2f0"/></g><g id="241" ed:toid="322" ed:type="relation" ed:fromid="312" transform="matrix(1,0,0,1,1046.35,814.5)"><path d="M-32,-311C123.3,-207.7,172.7,186.1,32,311" fill="none"/><path d="M-32,-311C121,-209.2,171.2,174.6,38,305.3" fill="none" stroke-width="2" stroke-linecap="round" stroke-linejoin="round" stroke-dasharray="3,3" stroke="#53a2f0"/><path d="M32,311L43,308.4C41.1,307.9,39.4,306.9,38,305.3C36.6,303.8,35.7,302.1,35.3,300.2L32,311" fill="#53a2f0" stroke-width="1" stroke-linecap="round" stroke="#53a2f0"/></g><path d="M78.5,265.5L110,265.5L110,-259.5C110,-262.8,112.7,-265.5,116,-265.5L141.5,-265.5" ed:tosuperid="102" fill="none" id="103" ed:parentid="101" stroke-width="2" stroke-linecap="round" stroke-linejoin="round" stroke="#454545" transform="matrix(1,0,0,1,383.5,307)"/><path d="M78.5,189.5L110,189.5L110,-183.5C110,-186.8,112.7,-189.5,116,-189.5L141.5,-189.5" ed:tosuperid="104" fill="none" id="105" ed:parentid="101" stroke-width="2" stroke-linecap="round" stroke-linejoin="round" stroke="#454545" transform="matrix(1,0,0,1,383.5,383)"/><path d="M-13.5,7.8L0,7.8L0,-1.8C0,-5.1,2.7,-7.8,6,-7.8L13.5,-7.8" ed:tosuperid="120" fill="none" id="121" ed:parentid="227" stroke-linecap="round" stroke-linejoin="round" stroke="#454545" transform="matrix(1,0,0,1,980.5,666.25)"/><path d="M0,-7.8L0,1.8C0,5.1,2.7,7.8,6,7.8L13.5,7.8" ed:tosuperid="122" fill="none" id="123" ed:parentid="227" stroke-linecap="round" stroke-linejoin="round" stroke="#454545" transform="matrix(1,0,0,1,980.5,681.75)"/><path d="M78.5,26.8L110,26.8L110,-20.8C110,-24.1,112.7,-26.8,116,-26.8L141.5,-26.8" ed:tosuperid="139" fill="none" id="140" ed:parentid="101" stroke-width="2" stroke-linecap="round" stroke-linejoin="round" stroke="#454545" transform="matrix(1,0,0,1,383.5,545.75)"/><path d="M78.5,-265.5L110,-265.5L110,259.5C110,262.8,112.7,265.5,116,265.5L141.5,265.5" ed:tosuperid="141" fill="none" id="142" ed:parentid="101" stroke-width="2" stroke-linecap="round" stroke-linejoin="round" stroke="#454545" transform="matrix(1,0,0,1,383.5,838)"/><path d="M78.5,227.5L110,227.5L110,-221.5C110,-224.8,112.7,-227.5,116,-227.5L141.5,-227.5" ed:tosuperid="106" fill="none" id="195" ed:parentid="101" stroke-width="2" stroke-linecap="round" stroke-linejoin="round" stroke="#454545" transform="matrix(1,0,0,1,383.5,345)"/><path d="M78.5,151.5L110,151.5L110,-145.5C110,-148.8,112.7,-151.5,116,-151.5L141.5,-151.5" ed:tosuperid="196" fill="none" id="197" ed:parentid="101" stroke-width="2" stroke-linecap="round" stroke-linejoin="round" stroke="#454545" transform="matrix(1,0,0,1,383.5,421)"/><path d="M0,31L0,-25C0,-28.3,2.7,-31,6,-31L13.5,-31" ed:tosuperid="198" fill="none" id="199" ed:parentid="223" stroke-linecap="round" stroke-linejoin="round" stroke="#454545" transform="matrix(1,0,0,1,748.5,488)"/><path d="M0,46.5L0,-40.5C0,-43.8,2.7,-46.5,6,-46.5L13.5,-46.5" ed:tosuperid="207" fill="none" id="208" ed:parentid="298" stroke-linecap="round" stroke-linejoin="round" stroke="#454545" transform="matrix(1,0,0,1,865.5,643)"/><path d="M0,-23.3L0,17.3C0,20.6,2.7,23.3,6,23.3L13.5,23.3" ed:tosuperid="209" fill="none" id="210" ed:parentid="198" stroke-linecap="round" stroke-linejoin="round" stroke="#454545" transform="matrix(1,0,0,1,837.5,480.25)"/><path d="M0,-15.5L0,9.5C0,12.8,2.7,15.5,6,15.5L13.5,15.5" ed:tosuperid="229" fill="none" id="230" ed:parentid="209" stroke-linecap="round" stroke-linejoin="round" stroke="#454545" transform="matrix(1,0,0,1,934.5,519)"/><path d="M-13.5,0L0,0C0,0,2.7,0,6,0L13.5,0" ed:tosuperid="223" fill="none" id="224" ed:parentid="139" stroke-linecap="round" stroke-linejoin="round" stroke="#454545" transform="matrix(1,0,0,1,667.5,519)"/><path d="M0,-19.4L0,13.4C0,16.7,2.7,19.4,6,19.4L13.5,19.4" ed:tosuperid="205" fill="none" id="206" ed:parentid="217" stroke-linecap="round" stroke-linejoin="round" stroke="#454545" transform="matrix(1,0,0,1,851.5,1084.13)"/><path d="M0,-23.3L0,17.3C0,20.6,2.7,23.3,6,23.3L13.5,23.3" ed:tosuperid="213" fill="none" id="214" ed:parentid="205" stroke-linecap="round" stroke-linejoin="round" stroke="#454545" transform="matrix(1,0,0,1,920.5,1126.75)"/><path d="M-13.5,0L0,0C0,0,2.7,0,6,0L13.5,0" ed:tosuperid="217" fill="none" id="220" ed:parentid="281" stroke-linecap="round" stroke-linejoin="round" stroke="#454545" transform="matrix(1,0,0,1,748.5,1064.75)"/><path d="M-13.5,0L0,0C0,0,2.7,0,6,0L13.5,0" ed:tosuperid="222" fill="none" id="226" ed:parentid="221" stroke-linecap="round" stroke-linejoin="round" stroke="#454545" transform="matrix(1,0,0,1,760.5,979.5)"/><path d="M-13.5,0L0,0C0,0,2.7,0,6,0L13.5,0" ed:tosuperid="242" fill="none" id="243" ed:parentid="267" stroke-linecap="round" stroke-linejoin="round" stroke="#454545" transform="matrix(1,0,0,1,756.5,1305)"/><path d="M0,62L0,-56C0,-59.3,2.7,-62,6,-62L13.5,-62" ed:tosuperid="221" fill="none" id="244" ed:parentid="141" stroke-linecap="round" stroke-linejoin="round" stroke="#454545" transform="matrix(1,0,0,1,673.5,1041.5)"/><path d="M0,-100.8L0,94.8C0,98.1,2.7,100.8,6,100.8L13.5,100.8" ed:tosuperid="267" fill="none" id="268" ed:parentid="141" stroke-linecap="round" stroke-linejoin="round" stroke="#454545" transform="matrix(1,0,0,1,673.5,1204.25)"/><path d="M0,19.4L0,-13.4C0,-16.7,2.7,-19.4,6,-19.4L13.5,-19.4" ed:tosuperid="281" fill="none" id="282" ed:parentid="141" stroke-linecap="round" stroke-linejoin="round" stroke="#454545" transform="matrix(1,0,0,1,673.5,1084.13)"/><path d="M-13.5,7.8L0,7.8L0,-1.8C0,-5.1,2.7,-7.8,6,-7.8L13.5,-7.8" ed:tosuperid="287" fill="none" id="288" ed:parentid="222" stroke-linecap="round" stroke-linejoin="round" stroke="#454545" transform="matrix(1,0,0,1,863.5,971.75)"/><path d="M0,-7.8L0,1.8C0,5.1,2.7,7.8,6,7.8L13.5,7.8" ed:tosuperid="289" fill="none" id="290" ed:parentid="222" stroke-linecap="round" stroke-linejoin="round" stroke="#454545" transform="matrix(1,0,0,1,863.5,987.25)"/><path d="M0,7.8L0,-1.8C0,-5.1,2.7,-7.8,6,-7.8L13.5,-7.8" ed:tosuperid="367" fill="none" id="368" ed:parentid="198" stroke-linecap="round" stroke-linejoin="round" stroke="#454545" transform="matrix(1,0,0,1,837.5,449.25)"/><path d="M0,-15.5L0,9.5C0,12.8,2.7,15.5,6,15.5L13.5,15.5" ed:tosuperid="374" fill="none" id="375" ed:parentid="213" stroke-linecap="round" stroke-linejoin="round" stroke="#454545" transform="matrix(1,0,0,1,992.5,1165.5)"/><path d="M-13.5,100.8L0,100.8L0,-94.8C0,-98.1,2.7,-100.8,6,-100.8L13.5,-100.8" ed:tosuperid="380" fill="none" id="381" ed:parentid="141" stroke-linecap="round" stroke-linejoin="round" stroke="#454545" transform="matrix(1,0,0,1,673.5,1002.75)"/><path d="M0,0C0,0,2.7,0,6,0L13.5,0" ed:tosuperid="382" fill="none" id="383" ed:parentid="380" stroke-linecap="round" stroke-linejoin="round" stroke="#454545" transform="matrix(1,0,0,1,748.5,902)"/><path d="M0,-85.3L0,79.3C0,82.6,2.7,85.3,6,85.3L13.5,85.3" ed:tosuperid="298" fill="none" id="299" ed:parentid="223" stroke-linecap="round" stroke-linejoin="round" stroke="#454545" transform="matrix(1,0,0,1,748.5,604.25)"/><path d="M0,31L0,-25C0,-28.3,2.7,-31,6,-31L13.5,-31" ed:tosuperid="302" fill="none" id="303" ed:parentid="298" stroke-linecap="round" stroke-linejoin="round" stroke="#454545" transform="matrix(1,0,0,1,865.5,658.5)"/><path d="M0,-15.5L0,9.5C0,12.8,2.7,15.5,6,15.5L13.5,15.5" ed:tosuperid="304" fill="none" id="305" ed:parentid="380" stroke-linecap="round" stroke-linejoin="round" stroke="#454545" transform="matrix(1,0,0,1,748.5,917.5)"/><path d="M-13.5,15.5L0,15.5L0,-9.5C0,-12.8,2.7,-15.5,6,-15.5L13.5,-15.5" ed:tosuperid="306" fill="none" id="307" ed:parentid="380" stroke-linecap="round" stroke-linejoin="round" stroke="#454545" transform="matrix(1,0,0,1,748.5,886.5)"/><path d="M0,69.8L0,-63.8C0,-67.1,2.7,-69.8,6,-69.8L13.5,-69.8" ed:tosuperid="308" fill="none" id="309" ed:parentid="223" stroke-linecap="round" stroke-linejoin="round" stroke="#454545" transform="matrix(1,0,0,1,748.5,449.25)"/><path d="M-13.5,19.4L0,19.4L0,-13.4C0,-16.7,2.7,-19.4,6,-19.4L13.5,-19.4" ed:tosuperid="310" fill="none" id="311" ed:parentid="217" stroke-linecap="round" stroke-linejoin="round" stroke="#454545" transform="matrix(1,0,0,1,851.5,1045.38)"/><path d="M0,0C0,0,2.7,0,6,0L13.5,0" ed:tosuperid="312" fill="none" id="313" ed:parentid="209" stroke-linecap="round" stroke-linejoin="round" stroke="#454545" transform="matrix(1,0,0,1,934.5,503.5)"/><path d="M0,7.8L0,-1.8C0,-5.1,2.7,-7.8,6,-7.8L13.5,-7.8" ed:tosuperid="320" fill="none" id="321" ed:parentid="205" stroke-linecap="round" stroke-linejoin="round" stroke="#454545" transform="matrix(1,0,0,1,920.5,1095.75)"/><path d="M0,0C0,0,2.7,0,6,0L13.5,0" ed:tosuperid="322" fill="none" id="323" ed:parentid="213" stroke-linecap="round" stroke-linejoin="round" stroke="#454545" transform="matrix(1,0,0,1,992.5,1150)"/><path d="M-13.5,23.3L0,23.3L0,-17.3C0,-20.6,2.7,-23.3,6,-23.3L13.5,-23.3" ed:tosuperid="326" fill="none" id="327" ed:parentid="205" stroke-linecap="round" stroke-linejoin="round" stroke="#454545" transform="matrix(1,0,0,1,920.5,1080.25)"/><path d="M-13.5,15.5L0,15.5L0,-9.5C0,-12.8,2.7,-15.5,6,-15.5L13.5,-15.5" ed:tosuperid="328" fill="none" id="329" ed:parentid="213" stroke-linecap="round" stroke-linejoin="round" stroke="#454545" transform="matrix(1,0,0,1,992.5,1134.5)"/><path d="M-13.5,85.3L0,85.3L0,-79.3C0,-82.6,2.7,-85.3,6,-85.3L13.5,-85.3" ed:tosuperid="332" fill="none" id="333" ed:parentid="223" stroke-linecap="round" stroke-linejoin="round" stroke="#454545" transform="matrix(1,0,0,1,748.5,433.75)"/><path d="M-13.5,23.3L0,23.3L0,-17.3C0,-20.6,2.7,-23.3,6,-23.3L13.5,-23.3" ed:tosuperid="334" fill="none" id="335" ed:parentid="198" stroke-linecap="round" stroke-linejoin="round" stroke="#454545" transform="matrix(1,0,0,1,837.5,433.75)"/><path d="M-13.5,15.5L0,15.5L0,-9.5C0,-12.8,2.7,-15.5,6,-15.5L13.5,-15.5" ed:tosuperid="336" fill="none" id="337" ed:parentid="209" stroke-linecap="round" stroke-linejoin="round" stroke="#454545" transform="matrix(1,0,0,1,934.5,488)"/><path d="M-13.5,62L0,62L0,-56C0,-59.3,2.7,-62,6,-62L13.5,-62" ed:tosuperid="338" fill="none" id="339" ed:parentid="298" stroke-linecap="round" stroke-linejoin="round" stroke="#454545" transform="matrix(1,0,0,1,865.5,627.5)"/><path d="M0,7.8L0,-1.8C0,-5.1,2.7,-7.8,6,-7.8L13.5,-7.8" ed:tosuperid="227" fill="none" id="228" ed:parentid="298" stroke-linecap="round" stroke-linejoin="round" stroke="#454545" transform="matrix(1,0,0,1,865.5,681.75)"/><path d="M0,-62L0,56C0,59.3,2.7,62,6,62L13.5,62" ed:tosuperid="231" fill="none" id="232" ed:parentid="298" stroke-linecap="round" stroke-linejoin="round" stroke="#454545" transform="matrix(1,0,0,1,865.5,751.5)"/><path d="M0,-31L0,25C0,28.3,2.7,31,6,31L13.5,31" ed:tosuperid="247" fill="none" id="248" ed:parentid="298" stroke-linecap="round" stroke-linejoin="round" stroke="#454545" transform="matrix(1,0,0,1,865.5,720.5)"/><path d="M-13.5,15.5L0,15.5L0,-9.5C0,-12.8,2.7,-15.5,6,-15.5L13.5,-15.5" ed:tosuperid="249" fill="none" id="250" ed:parentid="247" stroke-linecap="round" stroke-linejoin="round" stroke="#454545" transform="matrix(1,0,0,1,980.5,736)"/><path d="M0,0C0,0,2.7,0,6,0L13.5,0" ed:tosuperid="251" fill="none" id="252" ed:parentid="247" stroke-linecap="round" stroke-linejoin="round" stroke="#454545" transform="matrix(1,0,0,1,980.5,751.5)"/><path d="M0,-15.5L0,9.5C0,12.8,2.7,15.5,6,15.5L13.5,15.5" ed:tosuperid="253" fill="none" id="254" ed:parentid="247" stroke-linecap="round" stroke-linejoin="round" stroke="#454545" transform="matrix(1,0,0,1,980.5,767)"/><path d="M0,-69.8L0,63.8C0,67.1,2.7,69.8,6,69.8L13.5,69.8" ed:tosuperid="255" fill="none" id="256" ed:parentid="141" stroke-linecap="round" stroke-linejoin="round" stroke="#454545" transform="matrix(1,0,0,1,673.5,1173.25)"/><path d="M-13.5,15.5L0,15.5L0,-9.5C0,-12.8,2.7,-15.5,6,-15.5L13.5,-15.5" ed:tosuperid="260" fill="none" id="257" ed:parentid="259" stroke-linecap="round" stroke-linejoin="round" stroke="#454545" transform="matrix(1,0,0,1,863.5,1227.5)"/><path d="M0,0C0,0,2.7,0,6,0L13.5,0" ed:tosuperid="261" fill="none" id="258" ed:parentid="259" stroke-linecap="round" stroke-linejoin="round" stroke="#454545" transform="matrix(1,0,0,1,863.5,1243)"/><path d="M-13.5,0L0,0C0,0,2.7,0,6,0L13.5,0" ed:tosuperid="259" fill="none" id="262" ed:parentid="255" stroke-linecap="round" stroke-linejoin="round" stroke="#454545" transform="matrix(1,0,0,1,760.5,1243)"/><path d="M0,-15.5L0,9.5C0,12.8,2.7,15.5,6,15.5L13.5,15.5" ed:tosuperid="263" fill="none" id="264" ed:parentid="259" stroke-linecap="round" stroke-linejoin="round" stroke="#454545" transform="matrix(1,0,0,1,863.5,1258.5)"/><g id="101" ed:topictype="mainidea" ed:width="440" ed:height="68" transform="matrix(1,0,0,1,22,538.5)" ed:layout="map"><path d="M4,0L436,0C438.7,0,440,1.3,440,4L440,64C440,66.7,438.7,68,436,68L4,68C1.3,68,0,66.7,0,64L0,4C0,1.3,1.3,0,4,0z" fill="#173679" stroke-width="2" stroke-linejoin="round" stroke="#173679"/><text class="st2"><tspan textLength="397" y="43.95" x="20" class="st3" style="white-space:pre">Markdown Single Page Web</tspan></text></g><g id="102" ed:parentid="101" ed:width="77" ed:height="43" transform="matrix(1,0,0,1,525,20)" ed:layout="rightmap"><path d="M4,0L73,0C75.7,0,77,1.3,77,4L77,39C77,41.7,75.7,43,73,43L4,43C1.3,43,0,41.7,0,39L0,4C0,1.3,1.3,0,4,0z" fill="#f9f9f9" stroke-width="2" stroke-linejoin="round" stroke="#454545"/><text class="st4"><tspan textLength="37" y="26.95" x="18" style="white-space:pre">css/</tspan></text></g><g id="104" ed:parentid="101" ed:width="64" ed:height="43" transform="matrix(1,0,0,1,525,172)" ed:layout="rightmap"><path d="M4,0L60,0C62.7,0,64,1.3,64,4L64,39C64,41.7,62.7,43,60,43L4,43C1.3,43,0,41.7,0,39L0,4C0,1.3,1.3,0,4,0z" fill="#f9f9f9" stroke-width="2" stroke-linejoin="round" stroke="#454545"/><text class="st4"><tspan textLength="24" y="26.95" x="18" style="white-space:pre">js/</tspan></text></g><g id="106" ed:parentid="101" ed:width="109" ed:height="43" transform="matrix(1,0,0,1,525,96)" ed:layout="rightmap"><path d="M4,0L105,0C107.7,0,109,1.3,109,4L109,39C109,41.7,107.7,43,105,43L4,43C1.3,43,0,41.7,0,39L0,4C0,1.3,1.3,0,4,0z" fill="#f9f9f9" stroke-width="2" stroke-linejoin="round" stroke="#454545"/><text class="st4"><tspan textLength="69" y="26.95" x="18" style="white-space:pre">image/</tspan></text></g><g id="120" ed:parentid="227" ed:width="81" ed:height="24.5" transform="matrix(1,0,0,1,994,634)" ed:layout="rightmap"><path d="M0,24.5L81,24.5" fill="none" stroke-linejoin="round" stroke="#454545"/><text class="st5"><tspan textLength="63" y="16.1" x="8" style="white-space:pre">#### logo</tspan></text></g><g id="122" ed:parentid="227" ed:width="76" ed:height="24.5" transform="matrix(1,0,0,1,994,665)" ed:layout="rightmap"><path d="M0,24.5L76,24.5" fill="none" stroke-linejoin="round" stroke="#454545"/><text class="st5"><tspan textLength="58" y="16.1" x="8" style="white-space:pre">#### nav</tspan></text></g><g id="139" ed:parentid="101" ed:width="129" ed:height="43" transform="matrix(1,0,0,1,525,497.5)" ed:layout="rightmap"><path d="M4,0L125,0C127.7,0,129,1.3,129,4L129,39C129,41.7,127.7,43,125,43L4,43C1.3,43,0,41.7,0,39L0,4C0,1.3,1.3,0,4,0z" fill="#f9f9f9" stroke-width="2" stroke-linejoin="round" stroke="#454545"/><text class="st4"><tspan textLength="90" y="26.95" x="18" style="white-space:pre">index.md</tspan></text></g><g id="141" ed:parentid="101" ed:width="135" ed:height="43" transform="matrix(1,0,0,1,525,1082)" ed:layout="rightmap"><path d="M4,0L131,0C133.7,0,135,1.3,135,4L135,39C135,41.7,133.7,43,131,43L4,43C1.3,43,0,41.7,0,39L0,4C0,1.3,1.3,0,4,0z" fill="#f9f9f9" stroke-width="2" stroke-linejoin="round" stroke="#454545"/><text class="st4"><tspan textLength="96" y="26.95" x="18" style="white-space:pre">index.php</tspan></text></g><g id="196" ed:parentid="101" ed:width="122" ed:height="43" transform="matrix(1,0,0,1,525,248)" ed:layout="rightmap"><path d="M4,0L118,0C120.7,0,122,1.3,122,4L122,39C122,41.7,120.7,43,118,43L4,43C1.3,43,0,41.7,0,39L0,4C0,1.3,1.3,0,4,0z" fill="#f9f9f9" stroke-width="2" stroke-linejoin="round" stroke="#454545"/><text class="st4"><tspan textLength="82" y="26.95" x="18" style="white-space:pre">module/</tspan></text></g><g id="198" ed:parentid="223" ed:width="62" ed:height="24.5" transform="matrix(1,0,0,1,762,432.5)" ed:layout="rightmap"><path d="M0,24.5L62,24.5" fill="none" stroke-linejoin="round" stroke="#454545"/><text class="st5"><tspan textLength="44" y="16.1" x="8" style="white-space:pre">## {h2}</tspan></text></g><g id="207" ed:parentid="298" ed:width="72" ed:height="24.5" transform="matrix(1,0,0,1,879,572)" ed:layout="rightmap"><path d="M0,24.5L72,24.5" fill="none" stroke-linejoin="round" stroke="#454545"/><text class="st5"><tspan textLength="54" y="16.1" x="8" style="white-space:pre">### icon</tspan></text></g><g id="209" ed:parentid="198" ed:width="70" ed:height="24.5" transform="matrix(1,0,0,1,851,479)" ed:layout="rightmap"><path d="M0,24.5L70,24.5" fill="none" stroke-linejoin="round" stroke="#454545"/><text class="st5"><tspan textLength="52" y="16.1" x="8" style="white-space:pre">### {h3}</tspan></text></g><g id="229" ed:parentid="209" ed:width="78" ed:height="24.5" transform="matrix(1,0,0,1,948,510)" ed:layout="rightmap"><path d="M0,24.5L78,24.5" fill="none" stroke-linejoin="round" stroke="#454545"/><text class="st5"><tspan textLength="60" y="16.1" x="8" style="white-space:pre">#### {h4}</tspan></text></g><g id="223" ed:parentid="139" ed:width="54" ed:height="24.5" transform="matrix(1,0,0,1,681,494.5)" ed:layout="rightmap"><path d="M0,24.5L54,24.5" fill="none" stroke-linejoin="round" stroke="#454545"/><text class="st5"><tspan textLength="36" y="16.1" x="8" style="white-space:pre"># {h1}</tspan></text></g><g id="205" ed:parentid="217" ed:width="42" ed:height="24.5" transform="matrix(1,0,0,1,865,1079)" ed:layout="rightmap"><path d="M0,24.5L42,24.5" fill="none" stroke-linejoin="round" stroke="#454545"/><text class="st5"><tspan textLength="24" y="16.1" x="8" style="white-space:pre">unit</tspan></text></g><g id="213" ed:parentid="205" ed:width="45" ed:height="24.5" transform="matrix(1,0,0,1,934,1125.5)" ed:layout="rightmap"><path d="M0,24.5L45,24.5" fill="none" stroke-linejoin="round" stroke="#454545"/><text class="st5"><tspan textLength="27" y="16.1" x="8" style="white-space:pre">card</tspan></text></g><g id="217" ed:parentid="281" ed:width="76" ed:height="24.5" transform="matrix(1,0,0,1,762,1040.25)" ed:layout="rightmap"><path d="M0,24.5L76,24.5" fill="none" stroke-linejoin="round" stroke="#454545"/><text class="st5"><tspan textLength="58" y="16.1" x="8" style="white-space:pre">container</tspan></text></g><g id="221" ed:parentid="141" ed:width="60" ed:height="24.5" transform="matrix(1,0,0,1,687,955)" ed:layout="rightmap"><path d="M0,24.5L60,24.5" fill="none" stroke-linejoin="round" stroke="#454545"/><text class="st5"><tspan textLength="42" y="16.1" x="8" style="white-space:pre">header</tspan></text></g><g id="222" ed:parentid="221" ed:width="76" ed:height="24.5" transform="matrix(1,0,0,1,774,955)" ed:layout="rightmap"><path d="M0,24.5L76,24.5" fill="none" stroke-linejoin="round" stroke="#454545"/><text class="st5"><tspan textLength="58" y="16.1" x="8" style="white-space:pre">container</tspan></text></g><g id="242" ed:parentid="267" ed:width="76" ed:height="24.5" transform="matrix(1,0,0,1,770,1280.5)" ed:layout="rightmap"><path d="M0,24.5L76,24.5" fill="none" stroke-linejoin="round" stroke="#454545"/><text class="st5"><tspan textLength="58" y="16.1" x="8" style="white-space:pre">container</tspan></text></g><g id="267" ed:parentid="141" ed:width="56" ed:height="24.5" transform="matrix(1,0,0,1,687,1280.5)" ed:layout="rightmap"><path d="M0,24.5L56,24.5" fill="none" stroke-linejoin="round" stroke="#454545"/><text class="st5"><tspan textLength="38" y="16.1" x="8" style="white-space:pre">footer</tspan></text></g><g id="281" ed:parentid="141" ed:width="48" ed:height="24.5" transform="matrix(1,0,0,1,687,1040.25)" ed:layout="rightmap"><path d="M0,24.5L48,24.5" fill="none" stroke-linejoin="round" stroke="#454545"/><text class="st5"><tspan textLength="30" y="16.1" x="8" style="white-space:pre">main</tspan></text></g><g id="287" ed:parentid="222" ed:width="45" ed:height="24.5" transform="matrix(1,0,0,1,877,939.5)" ed:layout="rightmap"><path d="M0,24.5L45,24.5" fill="none" stroke-linejoin="round" stroke="#454545"/><text class="st5"><tspan textLength="27" y="16.1" x="8" style="white-space:pre">logo</tspan></text></g><g id="289" ed:parentid="222" ed:width="40" ed:height="24.5" transform="matrix(1,0,0,1,877,970.5)" ed:layout="rightmap"><path d="M0,24.5L40,24.5" fill="none" stroke-linejoin="round" stroke="#454545"/><text class="st5"><tspan textLength="22" y="16.1" x="8" style="white-space:pre">nav</tspan></text></g><g id="367" ed:parentid="198" ed:width="96" ed:height="24.5" transform="matrix(1,0,0,1,851,417)" ed:layout="rightmap"><path d="M0,24.5L96,24.5" fill="none" stroke-linejoin="round" stroke="#454545"/><text class="st5"><tspan textLength="78" y="16.1" x="8" style="white-space:pre">{h2-content}</tspan></text></g><g id="374" ed:parentid="213" ed:width="42" ed:height="24.5" transform="matrix(1,0,0,1,1006,1156.5)" ed:layout="rightmap"><path d="M0,24.5L42,24.5" fill="none" stroke-linejoin="round" stroke="#454545"/><text class="st5"><tspan textLength="24" y="16.1" x="8" style="white-space:pre">pop</tspan></text></g><g id="380" ed:parentid="141" ed:width="48" ed:height="24.5" transform="matrix(1,0,0,1,687,877.5)" ed:layout="rightmap"><path d="M0,24.5L48,24.5" fill="none" stroke-linejoin="round" stroke="#454545"/><text class="st5"><tspan textLength="30" y="16.1" x="8" style="white-space:pre">head</tspan></text></g><g id="382" ed:parentid="380" ed:width="44" ed:height="24.5" transform="matrix(1,0,0,1,762,877.5)" ed:layout="rightmap"><path d="M0,24.5L44,24.5" fill="none" stroke-linejoin="round" stroke="#454545"/><text class="st5"><tspan textLength="26" y="16.1" x="8" style="white-space:pre">icon</tspan></text></g><g id="298" ed:parentid="223" ed:width="90" ed:height="24.5" transform="matrix(1,0,0,1,762,665)" ed:layout="rightmap"><path d="M0,24.5L90,24.5" fill="none" stroke-linejoin="round" stroke="#454545"/><text class="st5"><tspan textLength="72" y="16.1" x="8" style="white-space:pre">## CONFIG</tspan></text></g><g id="302" ed:parentid="298" ed:width="104" ed:height="24.5" transform="matrix(1,0,0,1,879,603)" ed:layout="rightmap"><path d="M0,24.5L104,24.5" fill="none" stroke-linejoin="round" stroke="#454545"/><text class="st5"><tspan textLength="86" y="16.1" x="8" style="white-space:pre">### keywords</tspan></text></g><g id="304" ed:parentid="380" ed:width="41" ed:height="24.5" transform="matrix(1,0,0,1,762,908.5)" ed:layout="rightmap"><path d="M0,24.5L41,24.5" fill="none" stroke-linejoin="round" stroke="#454545"/><text class="st5"><tspan textLength="23" y="16.1" x="8" style="white-space:pre">title</tspan></text></g><g id="306" ed:parentid="380" ed:width="76" ed:height="24.5" transform="matrix(1,0,0,1,762,846.5)" ed:layout="rightmap"><path d="M0,24.5L76,24.5" fill="none" stroke-linejoin="round" stroke="#454545"/><text class="st5"><tspan textLength="58" y="16.1" x="8" style="white-space:pre">keywords</tspan></text></g><g id="308" ed:parentid="223" ed:width="96" ed:height="24.5" transform="matrix(1,0,0,1,762,355)" ed:layout="rightmap"><path d="M0,24.5L96,24.5" fill="none" stroke-linejoin="round" stroke="#454545"/><text class="st5"><tspan textLength="78" y="16.1" x="8" style="white-space:pre">{h1-content}</tspan></text></g><g id="310" ed:parentid="217" ed:width="120" ed:height="24.5" transform="matrix(1,0,0,1,865,1001.5)" ed:layout="rightmap"><path d="M0,24.5L120,24.5" fill="none" stroke-linejoin="round" stroke="#454545"/><text class="st5"><tspan textLength="102" y="16.1" x="8" style="white-space:pre">page description</tspan></text></g><g id="312" ed:parentid="209" ed:width="96" ed:height="24.5" transform="matrix(1,0,0,1,948,479)" ed:layout="rightmap"><path d="M0,24.5L96,24.5" fill="none" stroke-linejoin="round" stroke="#454545"/><text class="st5"><tspan textLength="78" y="16.1" x="8" style="white-space:pre">{h3-content}</tspan></text></g><g id="320" ed:parentid="205" ed:width="114" ed:height="24.5" transform="matrix(1,0,0,1,934,1063.5)" ed:layout="rightmap"><path d="M0,24.5L114,24.5" fill="none" stroke-linejoin="round" stroke="#454545"/><text class="st5"><tspan textLength="96" y="16.1" x="8" style="white-space:pre">unit description</tspan></text></g><g id="322" ed:parentid="213" ed:width="117" ed:height="24.5" transform="matrix(1,0,0,1,1006,1125.5)" ed:layout="rightmap"><path d="M0,24.5L117,24.5" fill="none" stroke-linejoin="round" stroke="#454545"/><text class="st5"><tspan textLength="99" y="16.1" x="8" style="white-space:pre">card description</tspan></text></g><g id="326" ed:parentid="205" ed:width="69" ed:height="24.5" transform="matrix(1,0,0,1,934,1032.5)" ed:layout="rightmap"><path d="M0,24.5L69,24.5" fill="none" stroke-linejoin="round" stroke="#454545"/><text class="st5"><tspan textLength="51" y="16.1" x="8" style="white-space:pre">unit title</tspan></text></g><g id="328" ed:parentid="213" ed:width="72" ed:height="24.5" transform="matrix(1,0,0,1,1006,1094.5)" ed:layout="rightmap"><path d="M0,24.5L72,24.5" fill="none" stroke-linejoin="round" stroke="#454545"/><text class="st5"><tspan textLength="54" y="16.1" x="8" style="white-space:pre">card title</tspan></text></g><g id="332" ed:parentid="223" ed:width="71" ed:height="24.5" transform="matrix(1,0,0,1,762,324)" ed:layout="rightmap"><path d="M0,24.5L71,24.5" fill="none" stroke-linejoin="round" stroke="#454545"/><text class="st5"><tspan textLength="53" y="16.1" x="8" style="white-space:pre">{h1-title}</tspan></text></g><g id="334" ed:parentid="198" ed:width="71" ed:height="24.5" transform="matrix(1,0,0,1,851,386)" ed:layout="rightmap"><path d="M0,24.5L71,24.5" fill="none" stroke-linejoin="round" stroke="#454545"/><text class="st5"><tspan textLength="53" y="16.1" x="8" style="white-space:pre">{h2-title}</tspan></text></g><g id="336" ed:parentid="209" ed:width="71" ed:height="24.5" transform="matrix(1,0,0,1,948,448)" ed:layout="rightmap"><path d="M0,24.5L71,24.5" fill="none" stroke-linejoin="round" stroke="#454545"/><text class="st5"><tspan textLength="53" y="16.1" x="8" style="white-space:pre">{h3-title}</tspan></text></g><g id="338" ed:parentid="298" ed:width="69" ed:height="24.5" transform="matrix(1,0,0,1,879,541)" ed:layout="rightmap"><path d="M0,24.5L69,24.5" fill="none" stroke-linejoin="round" stroke="#454545"/><text class="st5"><tspan textLength="51" y="16.1" x="8" style="white-space:pre">### title</tspan></text></g><g id="227" ed:parentid="298" ed:width="88" ed:height="24.5" transform="matrix(1,0,0,1,879,649.5)" ed:layout="rightmap"><path d="M0,24.5L88,24.5" fill="none" stroke-linejoin="round" stroke="#454545"/><text class="st5"><tspan textLength="70" y="16.1" x="8" style="white-space:pre">### header</tspan></text></g><g id="231" ed:parentid="298" ed:width="84" ed:height="24.5" transform="matrix(1,0,0,1,879,789)" ed:layout="rightmap"><path d="M0,24.5L84,24.5" fill="none" stroke-linejoin="round" stroke="#454545"/><text class="st5"><tspan textLength="66" y="16.1" x="8" style="white-space:pre">### footer</tspan></text></g><g id="247" ed:parentid="298" ed:width="88" ed:height="24.5" transform="matrix(1,0,0,1,879,727)" ed:layout="rightmap"><path d="M0,24.5L88,24.5" fill="none" stroke-linejoin="round" stroke="#454545"/><text class="st5"><tspan textLength="70" y="16.1" x="8" style="white-space:pre">### ending</tspan></text></g><g id="249" ed:parentid="247" ed:width="74" ed:height="24.5" transform="matrix(1,0,0,1,994,696)" ed:layout="rightmap"><path d="M0,24.5L74,24.5" fill="none" stroke-linejoin="round" stroke="#454545"/><text class="st5"><tspan textLength="56" y="16.1" x="8" style="white-space:pre">#### left</tspan></text></g><g id="251" ed:parentid="247" ed:width="93" ed:height="24.5" transform="matrix(1,0,0,1,994,727)" ed:layout="rightmap"><path d="M0,24.5L93,24.5" fill="none" stroke-linejoin="round" stroke="#454545"/><text class="st5"><tspan textLength="75" y="16.1" x="8" style="white-space:pre">#### center</tspan></text></g><g id="253" ed:parentid="247" ed:width="83" ed:height="24.5" transform="matrix(1,0,0,1,994,758)" ed:layout="rightmap"><path d="M0,24.5L83,24.5" fill="none" stroke-linejoin="round" stroke="#454545"/><text class="st5"><tspan textLength="65" y="16.1" x="8" style="white-space:pre">#### right</tspan></text></g><g id="255" ed:parentid="141" ed:width="60" ed:height="24.5" transform="matrix(1,0,0,1,687,1218.5)" ed:layout="rightmap"><path d="M0,24.5L60,24.5" fill="none" stroke-linejoin="round" stroke="#454545"/><text class="st5"><tspan textLength="42" y="16.1" x="8" style="white-space:pre">ending</tspan></text></g><g id="259" ed:parentid="255" ed:width="76" ed:height="24.5" transform="matrix(1,0,0,1,774,1218.5)" ed:layout="rightmap"><path d="M0,24.5L76,24.5" fill="none" stroke-linejoin="round" stroke="#454545"/><text class="st5"><tspan textLength="58" y="16.1" x="8" style="white-space:pre">container</tspan></text></g><g id="260" ed:parentid="259" ed:width="38" ed:height="24.5" transform="matrix(1,0,0,1,877,1187.5)" ed:layout="rightmap"><path d="M0,24.5L38,24.5" fill="none" stroke-linejoin="round" stroke="#454545"/><text class="st5"><tspan textLength="20" y="16.1" x="8" style="white-space:pre">left</tspan></text></g><g id="261" ed:parentid="259" ed:width="57" ed:height="24.5" transform="matrix(1,0,0,1,877,1218.5)" ed:layout="rightmap"><path d="M0,24.5L57,24.5" fill="none" stroke-linejoin="round" stroke="#454545"/><text class="st5"><tspan textLength="39" y="16.1" x="8" style="white-space:pre">center</tspan></text></g><g id="263" ed:parentid="259" ed:width="47" ed:height="24.5" transform="matrix(1,0,0,1,877,1249.5)" ed:layout="rightmap"><path d="M0,24.5L47,24.5" fill="none" stroke-linejoin="round" stroke="#454545"/><text class="st5"><tspan textLength="29" y="16.1" x="8" style="white-space:pre">right</tspan></text></g></svg>