<svg xmlns:ev="http://www.w3.org/2001/xml-events" ed:name="页面-1" height="1329" xmlns:xlink="http://www.w3.org/1999/xlink" xmlns:ed="https://www.edrawsoft.cn/xml/2017/SVGExtensions/" ed:vSpacing="30" id="page100" viewBox="0 0 908 1329" width="908" ed:hSpacing="30" xmlns="http://www.w3.org/2000/svg"><style type="text/css"><![CDATA[
g[ed\:togtopicid],g[ed\:hyperlink],g[ed\:comment],g[ed\:note] {cursor:pointer;}
g[id] {-moz-user-select: none;-ms-user-select: none;user-select: none;}
svg text::selection,svg tspan::selection{background-color: #4285f4;color: #ffffff;fill: #ffffff;}
.st5 {fill:#000000;font-family:微软雅黑;font-size:10pt}
.st4 {fill:#303030;font-family:微软雅黑;font-size:14pt;font-weight:bold}
.st1 {fill:#454545;font-family:微软雅黑;font-size:10pt}
.st2 {fill:#ffffff;font-family:微软雅黑;font-size:18pt;font-weight:bold}
.st3 {font-size:21pt}
]]></style><defs/><rect y="0" height="1329" x="0" fill="#ffffff" width="908"/><g ed:toid="304" ed:type="relation" ed:fromid="332" transform="matrix(1,0,0,1,440.46,628.5)" id="233"><path fill="none" d="M9.3,-280C-223,45.6,-190,100.6,-9.3,280"/><path stroke-width="2" stroke-linejoin="round" stroke="#53a2f0" fill="none" d="M9.3,-280C-220.4,42,-190.7,99.3,-15.2,274.2" stroke-dasharray="3,3" stroke-linecap="round"/><path stroke-width="1" stroke="#53a2f0" fill="#53a2f0" d="M-9.3,280L-12.3,269.1C-12.7,270.9,-13.7,272.7,-15.2,274.2C-16.6,275.6,-18.4,276.6,-20.2,277.1L-9.3,280" stroke-linecap="round"/></g><g ed:toid="304" ed:type="relation" ed:fromid="338" transform="matrix(1,0,0,1,486.66,736.83)" id="234"><path fill="none" d="M53.3,-171.7C-144.2,-103.5,-217.2,-25.5,-53.3,171.7"/><path stroke-width="2" stroke-linejoin="round" stroke="#53a2f0" fill="none" d="M53.3,-171.7C-142,-104.3,-215.6,-27.2,-58.6,165.3" stroke-dasharray="3,3" stroke-linecap="round"/><path stroke-width="1" stroke="#53a2f0" fill="#53a2f0" d="M-53.3,171.7L-55.2,160.5C-55.9,162.3,-57,164,-58.6,165.3C-60.2,166.6,-62,167.4,-63.9,167.7L-53.3,171.7" stroke-linecap="round"/><rect y="-57.9" height="19" x="-158.5" fill="#ffffff" width="44"/><text class="st1"><tspan y="-43.897" x="-158" textLength="44" style="white-space:pre">priority</tspan></text></g><g ed:toid="310" ed:type="relation" ed:fromid="308" transform="matrix(1,0,0,1,530.49,690.5)" id="237"><path fill="none" d="M-59.5,-311C-60,-179.4,102,181.6,59.5,311"/><path stroke-width="2" stroke-linejoin="round" stroke="#53a2f0" fill="none" d="M-59.5,-311C-60,-182,95.7,167.4,61.8,303" stroke-dasharray="3,3" stroke-linecap="round"/><path stroke-width="1" stroke="#53a2f0" fill="#53a2f0" d="M59.5,311L67.7,303.1C65.8,303.6,63.8,303.6,61.8,303C59.8,302.5,58.1,301.4,56.8,300L59.5,311" stroke-linecap="round"/></g><g ed:toid="326" ed:type="relation" ed:fromid="334" transform="matrix(1,0,0,1,597.86,721.5)" id="238"><path fill="none" d="M-49.5,-311C-40.4,-180.4,190.4,214.4,49.5,311"/><path stroke-width="2" stroke-linejoin="round" stroke="#53a2f0" fill="none" d="M-49.5,-311C-40.5,-182.6,182.9,201.5,56.1,306" stroke-dasharray="3,3" stroke-linecap="round"/><path stroke-width="1" stroke="#53a2f0" fill="#53a2f0" d="M49.5,311L60.7,309.6C59,308.9,57.4,307.7,56.1,306C54.9,304.4,54.2,302.5,53.9,300.6L49.5,311" stroke-linecap="round"/></g><g ed:toid="320" ed:type="relation" ed:fromid="367" transform="matrix(1,0,0,1,613.1,752.5)" id="239"><path fill="none" d="M-50.4,-311C-20.6,-177.4,179.9,172.8,50.4,311"/><path stroke-width="2" stroke-linejoin="round" stroke="#53a2f0" fill="none" d="M-50.4,-311C-21,-179.4,174,162.6,55.9,304.8" stroke-dasharray="3,3" stroke-linecap="round"/><path stroke-width="1" stroke="#53a2f0" fill="#53a2f0" d="M50.4,311L61.1,307.4C59.2,307,57.4,306.2,55.9,304.8C54.3,303.4,53.2,301.7,52.6,299.9L50.4,311" stroke-linecap="round"/></g><g ed:toid="328" ed:type="relation" ed:fromid="336" transform="matrix(1,0,0,1,699.11,783.5)" id="240"><path fill="none" d="M-24.8,-311C84.5,-266.1,189.2,214.7,24.8,311"/><path stroke-width="2" stroke-linejoin="round" stroke="#53a2f0" fill="none" d="M-24.8,-311C82.9,-266.7,186.1,200.9,31.8,306.6" stroke-dasharray="3,3" stroke-linecap="round"/><path stroke-width="1" stroke="#53a2f0" fill="#53a2f0" d="M24.8,311L36.1,310.5C34.4,309.6,32.9,308.3,31.8,306.6C30.7,304.8,30.1,302.9,30.1,301L24.8,311" stroke-linecap="round"/></g><g ed:toid="322" ed:type="relation" ed:fromid="312" transform="matrix(1,0,0,1,707.35,814.5)" id="241"><path fill="none" d="M-32,-311C123.3,-207.7,172.7,186.1,32,311"/><path stroke-width="2" stroke-linejoin="round" stroke="#53a2f0" fill="none" d="M-32,-311C121,-209.2,171.2,174.6,38,305.3" stroke-dasharray="3,3" stroke-linecap="round"/><path stroke-width="1" stroke="#53a2f0" fill="#53a2f0" d="M32,311L43,308.4C41.1,307.9,39.4,306.9,38,305.3C36.6,303.8,35.7,302.1,35.3,300.2L32,311" stroke-linecap="round"/></g><path stroke-width="2" stroke-linejoin="round" ed:tosuperid="102" stroke="#454545" fill="none" ed:parentid="101" d="M-6.3,265.5L25.3,265.5L25.3,-259.5C25.3,-262.8,27.9,-265.5,31.3,-265.5L56.8,-265.5" transform="matrix(1,0,0,1,129.25,307)" id="103" stroke-linecap="round"/><path stroke-width="2" stroke-linejoin="round" ed:tosuperid="104" stroke="#454545" fill="none" ed:parentid="101" d="M-6.3,189.5L25.3,189.5L25.3,-183.5C25.3,-186.8,27.9,-189.5,31.3,-189.5L56.8,-189.5" transform="matrix(1,0,0,1,129.25,383)" id="105" stroke-linecap="round"/><path stroke-linejoin="round" ed:tosuperid="120" stroke="#454545" fill="none" ed:parentid="227" d="M-13.5,7.8L0,7.8L0,-1.8C0,-5.1,2.7,-7.8,6,-7.8L13.5,-7.8" transform="matrix(1,0,0,1,641.5,666.25)" id="121" stroke-linecap="round"/><path stroke-linejoin="round" ed:tosuperid="122" stroke="#454545" fill="none" ed:parentid="227" d="M0,-7.8L0,1.8C0,5.1,2.7,7.8,6,7.8L13.5,7.8" transform="matrix(1,0,0,1,641.5,681.75)" id="123" stroke-linecap="round"/><path stroke-width="2" stroke-linejoin="round" ed:tosuperid="139" stroke="#454545" fill="none" ed:parentid="101" d="M-6.3,26.8L25.3,26.8L25.3,-20.8C25.3,-24.1,27.9,-26.8,31.3,-26.8L56.8,-26.8" transform="matrix(1,0,0,1,129.25,545.75)" id="140" stroke-linecap="round"/><path stroke-width="2" stroke-linejoin="round" ed:tosuperid="141" stroke="#454545" fill="none" ed:parentid="101" d="M-6.3,-265.5L25.3,-265.5L25.3,259.5C25.3,262.8,27.9,265.5,31.3,265.5L56.8,265.5" transform="matrix(1,0,0,1,129.25,838)" id="142" stroke-linecap="round"/><path stroke-width="2" stroke-linejoin="round" ed:tosuperid="106" stroke="#454545" fill="none" ed:parentid="101" d="M-6.3,227.5L25.3,227.5L25.3,-221.5C25.3,-224.8,27.9,-227.5,31.3,-227.5L56.8,-227.5" transform="matrix(1,0,0,1,129.25,345)" id="195" stroke-linecap="round"/><path stroke-width="2" stroke-linejoin="round" ed:tosuperid="196" stroke="#454545" fill="none" ed:parentid="101" d="M-6.3,151.5L25.3,151.5L25.3,-145.5C25.3,-148.8,27.9,-151.5,31.3,-151.5L56.8,-151.5" transform="matrix(1,0,0,1,129.25,421)" id="197" stroke-linecap="round"/><path stroke-linejoin="round" ed:tosuperid="198" stroke="#454545" fill="none" ed:parentid="223" d="M0,31L0,-25C0,-28.3,2.7,-31,6,-31L13.5,-31" transform="matrix(1,0,0,1,409.5,488)" id="199" stroke-linecap="round"/><path stroke-linejoin="round" ed:tosuperid="207" stroke="#454545" fill="none" ed:parentid="298" d="M0,46.5L0,-40.5C0,-43.8,2.7,-46.5,6,-46.5L13.5,-46.5" transform="matrix(1,0,0,1,526.5,643)" id="208" stroke-linecap="round"/><path stroke-linejoin="round" ed:tosuperid="209" stroke="#454545" fill="none" ed:parentid="198" d="M0,-23.3L0,17.3C0,20.6,2.7,23.3,6,23.3L13.5,23.3" transform="matrix(1,0,0,1,498.5,480.25)" id="210" stroke-linecap="round"/><path stroke-linejoin="round" ed:tosuperid="229" stroke="#454545" fill="none" ed:parentid="209" d="M0,-15.5L0,9.5C0,12.8,2.7,15.5,6,15.5L13.5,15.5" transform="matrix(1,0,0,1,595.5,519)" id="230" stroke-linecap="round"/><path stroke-linejoin="round" ed:tosuperid="223" stroke="#454545" fill="none" ed:parentid="139" d="M-13.5,0L0,0C0,0,2.7,0,6,0L13.5,0" transform="matrix(1,0,0,1,328.5,519)" id="224" stroke-linecap="round"/><path stroke-linejoin="round" ed:tosuperid="205" stroke="#454545" fill="none" ed:parentid="217" d="M0,-19.4L0,13.4C0,16.7,2.7,19.4,6,19.4L13.5,19.4" transform="matrix(1,0,0,1,512.5,1084.13)" id="206" stroke-linecap="round"/><path stroke-linejoin="round" ed:tosuperid="213" stroke="#454545" fill="none" ed:parentid="205" d="M0,-23.3L0,17.3C0,20.6,2.7,23.3,6,23.3L13.5,23.3" transform="matrix(1,0,0,1,581.5,1126.75)" id="214" stroke-linecap="round"/><path stroke-linejoin="round" ed:tosuperid="217" stroke="#454545" fill="none" ed:parentid="281" d="M-13.5,0L0,0C0,0,2.7,0,6,0L13.5,0" transform="matrix(1,0,0,1,409.5,1064.75)" id="220" stroke-linecap="round"/><path stroke-linejoin="round" ed:tosuperid="222" stroke="#454545" fill="none" ed:parentid="221" d="M-13.5,0L0,0C0,0,2.7,0,6,0L13.5,0" transform="matrix(1,0,0,1,421.5,979.5)" id="226" stroke-linecap="round"/><path stroke-linejoin="round" ed:tosuperid="242" stroke="#454545" fill="none" ed:parentid="267" d="M-13.5,0L0,0C0,0,2.7,0,6,0L13.5,0" transform="matrix(1,0,0,1,417.5,1305)" id="243" stroke-linecap="round"/><path stroke-linejoin="round" ed:tosuperid="221" stroke="#454545" fill="none" ed:parentid="141" d="M0,62L0,-56C0,-59.3,2.7,-62,6,-62L13.5,-62" transform="matrix(1,0,0,1,334.5,1041.5)" id="244" stroke-linecap="round"/><path stroke-linejoin="round" ed:tosuperid="267" stroke="#454545" fill="none" ed:parentid="141" d="M0,-100.8L0,94.8C0,98.1,2.7,100.8,6,100.8L13.5,100.8" transform="matrix(1,0,0,1,334.5,1204.25)" id="268" stroke-linecap="round"/><path stroke-linejoin="round" ed:tosuperid="281" stroke="#454545" fill="none" ed:parentid="141" d="M0,19.4L0,-13.4C0,-16.7,2.7,-19.4,6,-19.4L13.5,-19.4" transform="matrix(1,0,0,1,334.5,1084.13)" id="282" stroke-linecap="round"/><path stroke-linejoin="round" ed:tosuperid="287" stroke="#454545" fill="none" ed:parentid="222" d="M-13.5,7.8L0,7.8L0,-1.8C0,-5.1,2.7,-7.8,6,-7.8L13.5,-7.8" transform="matrix(1,0,0,1,524.5,971.75)" id="288" stroke-linecap="round"/><path stroke-linejoin="round" ed:tosuperid="289" stroke="#454545" fill="none" ed:parentid="222" d="M0,-7.8L0,1.8C0,5.1,2.7,7.8,6,7.8L13.5,7.8" transform="matrix(1,0,0,1,524.5,987.25)" id="290" stroke-linecap="round"/><path stroke-linejoin="round" ed:tosuperid="367" stroke="#454545" fill="none" ed:parentid="198" d="M0,7.8L0,-1.8C0,-5.1,2.7,-7.8,6,-7.8L13.5,-7.8" transform="matrix(1,0,0,1,498.5,449.25)" id="368" stroke-linecap="round"/><path stroke-linejoin="round" ed:tosuperid="374" stroke="#454545" fill="none" ed:parentid="213" d="M0,-15.5L0,9.5C0,12.8,2.7,15.5,6,15.5L13.5,15.5" transform="matrix(1,0,0,1,653.5,1165.5)" id="375" stroke-linecap="round"/><path stroke-linejoin="round" ed:tosuperid="380" stroke="#454545" fill="none" ed:parentid="141" d="M-13.5,100.8L0,100.8L0,-94.8C0,-98.1,2.7,-100.8,6,-100.8L13.5,-100.8" transform="matrix(1,0,0,1,334.5,1002.75)" id="381" stroke-linecap="round"/><path stroke-linejoin="round" ed:tosuperid="382" stroke="#454545" fill="none" ed:parentid="380" d="M0,0C0,0,2.7,0,6,0L13.5,0" transform="matrix(1,0,0,1,409.5,902)" id="383" stroke-linecap="round"/><path stroke-linejoin="round" ed:tosuperid="298" stroke="#454545" fill="none" ed:parentid="223" d="M0,-85.3L0,79.3C0,82.6,2.7,85.3,6,85.3L13.5,85.3" transform="matrix(1,0,0,1,409.5,604.25)" id="299" stroke-linecap="round"/><path stroke-linejoin="round" ed:tosuperid="302" stroke="#454545" fill="none" ed:parentid="298" d="M0,31L0,-25C0,-28.3,2.7,-31,6,-31L13.5,-31" transform="matrix(1,0,0,1,526.5,658.5)" id="303" stroke-linecap="round"/><path stroke-linejoin="round" ed:tosuperid="304" stroke="#454545" fill="none" ed:parentid="380" d="M0,-15.5L0,9.5C0,12.8,2.7,15.5,6,15.5L13.5,15.5" transform="matrix(1,0,0,1,409.5,917.5)" id="305" stroke-linecap="round"/><path stroke-linejoin="round" ed:tosuperid="306" stroke="#454545" fill="none" ed:parentid="380" d="M-13.5,15.5L0,15.5L0,-9.5C0,-12.8,2.7,-15.5,6,-15.5L13.5,-15.5" transform="matrix(1,0,0,1,409.5,886.5)" id="307" stroke-linecap="round"/><path stroke-linejoin="round" ed:tosuperid="308" stroke="#454545" fill="none" ed:parentid="223" d="M0,69.8L0,-63.8C0,-67.1,2.7,-69.8,6,-69.8L13.5,-69.8" transform="matrix(1,0,0,1,409.5,449.25)" id="309" stroke-linecap="round"/><path stroke-linejoin="round" ed:tosuperid="310" stroke="#454545" fill="none" ed:parentid="217" d="M-13.5,19.4L0,19.4L0,-13.4C0,-16.7,2.7,-19.4,6,-19.4L13.5,-19.4" transform="matrix(1,0,0,1,512.5,1045.38)" id="311" stroke-linecap="round"/><path stroke-linejoin="round" ed:tosuperid="312" stroke="#454545" fill="none" ed:parentid="209" d="M0,0C0,0,2.7,0,6,0L13.5,0" transform="matrix(1,0,0,1,595.5,503.5)" id="313" stroke-linecap="round"/><path stroke-linejoin="round" ed:tosuperid="320" stroke="#454545" fill="none" ed:parentid="205" d="M0,7.8L0,-1.8C0,-5.1,2.7,-7.8,6,-7.8L13.5,-7.8" transform="matrix(1,0,0,1,581.5,1095.75)" id="321" stroke-linecap="round"/><path stroke-linejoin="round" ed:tosuperid="322" stroke="#454545" fill="none" ed:parentid="213" d="M0,0C0,0,2.7,0,6,0L13.5,0" transform="matrix(1,0,0,1,653.5,1150)" id="323" stroke-linecap="round"/><path stroke-linejoin="round" ed:tosuperid="326" stroke="#454545" fill="none" ed:parentid="205" d="M-13.5,23.3L0,23.3L0,-17.3C0,-20.6,2.7,-23.3,6,-23.3L13.5,-23.3" transform="matrix(1,0,0,1,581.5,1080.25)" id="327" stroke-linecap="round"/><path stroke-linejoin="round" ed:tosuperid="328" stroke="#454545" fill="none" ed:parentid="213" d="M-13.5,15.5L0,15.5L0,-9.5C0,-12.8,2.7,-15.5,6,-15.5L13.5,-15.5" transform="matrix(1,0,0,1,653.5,1134.5)" id="329" stroke-linecap="round"/><path stroke-linejoin="round" ed:tosuperid="332" stroke="#454545" fill="none" ed:parentid="223" d="M-13.5,85.3L0,85.3L0,-79.3C0,-82.6,2.7,-85.3,6,-85.3L13.5,-85.3" transform="matrix(1,0,0,1,409.5,433.75)" id="333" stroke-linecap="round"/><path stroke-linejoin="round" ed:tosuperid="334" stroke="#454545" fill="none" ed:parentid="198" d="M-13.5,23.3L0,23.3L0,-17.3C0,-20.6,2.7,-23.3,6,-23.3L13.5,-23.3" transform="matrix(1,0,0,1,498.5,433.75)" id="335" stroke-linecap="round"/><path stroke-linejoin="round" ed:tosuperid="336" stroke="#454545" fill="none" ed:parentid="209" d="M-13.5,15.5L0,15.5L0,-9.5C0,-12.8,2.7,-15.5,6,-15.5L13.5,-15.5" transform="matrix(1,0,0,1,595.5,488)" id="337" stroke-linecap="round"/><path stroke-linejoin="round" ed:tosuperid="338" stroke="#454545" fill="none" ed:parentid="298" d="M-13.5,62L0,62L0,-56C0,-59.3,2.7,-62,6,-62L13.5,-62" transform="matrix(1,0,0,1,526.5,627.5)" id="339" stroke-linecap="round"/><path stroke-linejoin="round" ed:tosuperid="227" stroke="#454545" fill="none" ed:parentid="298" d="M0,7.8L0,-1.8C0,-5.1,2.7,-7.8,6,-7.8L13.5,-7.8" transform="matrix(1,0,0,1,526.5,681.75)" id="228" stroke-linecap="round"/><path stroke-linejoin="round" ed:tosuperid="231" stroke="#454545" fill="none" ed:parentid="298" d="M0,-62L0,56C0,59.3,2.7,62,6,62L13.5,62" transform="matrix(1,0,0,1,526.5,751.5)" id="232" stroke-linecap="round"/><path stroke-linejoin="round" ed:tosuperid="247" stroke="#454545" fill="none" ed:parentid="298" d="M0,-31L0,25C0,28.3,2.7,31,6,31L13.5,31" transform="matrix(1,0,0,1,526.5,720.5)" id="248" stroke-linecap="round"/><path stroke-linejoin="round" ed:tosuperid="249" stroke="#454545" fill="none" ed:parentid="247" d="M-13.5,15.5L0,15.5L0,-9.5C0,-12.8,2.7,-15.5,6,-15.5L13.5,-15.5" transform="matrix(1,0,0,1,641.5,736)" id="250" stroke-linecap="round"/><path stroke-linejoin="round" ed:tosuperid="251" stroke="#454545" fill="none" ed:parentid="247" d="M0,0C0,0,2.7,0,6,0L13.5,0" transform="matrix(1,0,0,1,641.5,751.5)" id="252" stroke-linecap="round"/><path stroke-linejoin="round" ed:tosuperid="253" stroke="#454545" fill="none" ed:parentid="247" d="M0,-15.5L0,9.5C0,12.8,2.7,15.5,6,15.5L13.5,15.5" transform="matrix(1,0,0,1,641.5,767)" id="254" stroke-linecap="round"/><path stroke-linejoin="round" ed:tosuperid="255" stroke="#454545" fill="none" ed:parentid="141" d="M0,-69.8L0,63.8C0,67.1,2.7,69.8,6,69.8L13.5,69.8" transform="matrix(1,0,0,1,334.5,1173.25)" id="256" stroke-linecap="round"/><path stroke-linejoin="round" ed:tosuperid="260" stroke="#454545" fill="none" ed:parentid="259" d="M-13.5,15.5L0,15.5L0,-9.5C0,-12.8,2.7,-15.5,6,-15.5L13.5,-15.5" transform="matrix(1,0,0,1,524.5,1227.5)" id="257" stroke-linecap="round"/><path stroke-linejoin="round" ed:tosuperid="261" stroke="#454545" fill="none" ed:parentid="259" d="M0,0C0,0,2.7,0,6,0L13.5,0" transform="matrix(1,0,0,1,524.5,1243)" id="258" stroke-linecap="round"/><path stroke-linejoin="round" ed:tosuperid="259" stroke="#454545" fill="none" ed:parentid="255" d="M-13.5,0L0,0C0,0,2.7,0,6,0L13.5,0" transform="matrix(1,0,0,1,421.5,1243)" id="262" stroke-linecap="round"/><path stroke-linejoin="round" ed:tosuperid="263" stroke="#454545" fill="none" ed:parentid="259" d="M0,-15.5L0,9.5C0,12.8,2.7,15.5,6,15.5L13.5,15.5" transform="matrix(1,0,0,1,524.5,1258.5)" id="264" stroke-linecap="round"/><g ed:topictype="mainidea" ed:width="101" ed:height="68" transform="matrix(1,0,0,1,22,538.5)" ed:layout="map" id="101"><path stroke-width="2" stroke-linejoin="round" stroke="#173679" fill="#173679" d="M4,0L97,0C99.7,0,101,1.3,101,4L101,64C101,66.7,99.7,68,97,68L4,68C1.3,68,0,66.7,0,64L0,4C0,1.3,1.3,0,4,0z"/><text class="st2"><tspan y="43.95" class="st3" x="20" textLength="58" style="white-space:pre">This</tspan></text></g><g ed:width="77" ed:height="43" ed:parentid="101" transform="matrix(1,0,0,1,186,20)" ed:layout="rightmap" id="102"><path stroke-width="2" stroke-linejoin="round" stroke="#454545" fill="#f9f9f9" d="M4,0L73,0C75.7,0,77,1.3,77,4L77,39C77,41.7,75.7,43,73,43L4,43C1.3,43,0,41.7,0,39L0,4C0,1.3,1.3,0,4,0z"/><text class="st4"><tspan y="26.95" x="18" textLength="37" style="white-space:pre">css/</tspan></text></g><g ed:width="64" ed:height="43" ed:parentid="101" transform="matrix(1,0,0,1,186,172)" ed:layout="rightmap" id="104"><path stroke-width="2" stroke-linejoin="round" stroke="#454545" fill="#f9f9f9" d="M4,0L60,0C62.7,0,64,1.3,64,4L64,39C64,41.7,62.7,43,60,43L4,43C1.3,43,0,41.7,0,39L0,4C0,1.3,1.3,0,4,0z"/><text class="st4"><tspan y="26.95" x="18" textLength="24" style="white-space:pre">js/</tspan></text></g><g ed:width="109" ed:height="43" ed:parentid="101" transform="matrix(1,0,0,1,186,96)" ed:layout="rightmap" id="106"><path stroke-width="2" stroke-linejoin="round" stroke="#454545" fill="#f9f9f9" d="M4,0L105,0C107.7,0,109,1.3,109,4L109,39C109,41.7,107.7,43,105,43L4,43C1.3,43,0,41.7,0,39L0,4C0,1.3,1.3,0,4,0z"/><text class="st4"><tspan y="26.95" x="18" textLength="69" style="white-space:pre">image/</tspan></text></g><g ed:width="81" ed:height="24.5" ed:parentid="227" transform="matrix(1,0,0,1,655,634)" ed:layout="rightmap" id="120"><path stroke-linejoin="round" stroke="#454545" fill="none" d="M0,24.5L81,24.5"/><text class="st5"><tspan y="16.1" x="8" textLength="63" style="white-space:pre">#### logo</tspan></text></g><g ed:width="76" ed:height="24.5" ed:parentid="227" transform="matrix(1,0,0,1,655,665)" ed:layout="rightmap" id="122"><path stroke-linejoin="round" stroke="#454545" fill="none" d="M0,24.5L76,24.5"/><text class="st5"><tspan y="16.1" x="8" textLength="58" style="white-space:pre">#### nav</tspan></text></g><g ed:width="129" ed:height="43" ed:parentid="101" transform="matrix(1,0,0,1,186,497.5)" ed:layout="rightmap" id="139"><path stroke-width="2" stroke-linejoin="round" stroke="#454545" fill="#f9f9f9" d="M4,0L125,0C127.7,0,129,1.3,129,4L129,39C129,41.7,127.7,43,125,43L4,43C1.3,43,0,41.7,0,39L0,4C0,1.3,1.3,0,4,0z"/><text class="st4"><tspan y="26.95" x="18" textLength="90" style="white-space:pre">index.md</tspan></text></g><g ed:width="135" ed:height="43" ed:parentid="101" transform="matrix(1,0,0,1,186,1082)" ed:layout="rightmap" id="141"><path stroke-width="2" stroke-linejoin="round" stroke="#454545" fill="#f9f9f9" d="M4,0L131,0C133.7,0,135,1.3,135,4L135,39C135,41.7,133.7,43,131,43L4,43C1.3,43,0,41.7,0,39L0,4C0,1.3,1.3,0,4,0z"/><text class="st4"><tspan y="26.95" x="18" textLength="96" style="white-space:pre">index.php</tspan></text></g><g ed:width="122" ed:height="43" ed:parentid="101" transform="matrix(1,0,0,1,186,248)" ed:layout="rightmap" id="196"><path stroke-width="2" stroke-linejoin="round" stroke="#454545" fill="#f9f9f9" d="M4,0L118,0C120.7,0,122,1.3,122,4L122,39C122,41.7,120.7,43,118,43L4,43C1.3,43,0,41.7,0,39L0,4C0,1.3,1.3,0,4,0z"/><text class="st4"><tspan y="26.95" x="18" textLength="82" style="white-space:pre">module/</tspan></text></g><g ed:width="62" ed:height="24.5" ed:parentid="223" transform="matrix(1,0,0,1,423,432.5)" ed:layout="rightmap" id="198"><path stroke-linejoin="round" stroke="#454545" fill="none" d="M0,24.5L62,24.5"/><text class="st5"><tspan y="16.1" x="8" textLength="44" style="white-space:pre">## {h2}</tspan></text></g><g ed:width="72" ed:height="24.5" ed:parentid="298" transform="matrix(1,0,0,1,540,572)" ed:layout="rightmap" id="207"><path stroke-linejoin="round" stroke="#454545" fill="none" d="M0,24.5L72,24.5"/><text class="st5"><tspan y="16.1" x="8" textLength="54" style="white-space:pre">### icon</tspan></text></g><g ed:width="70" ed:height="24.5" ed:parentid="198" transform="matrix(1,0,0,1,512,479)" ed:layout="rightmap" id="209"><path stroke-linejoin="round" stroke="#454545" fill="none" d="M0,24.5L70,24.5"/><text class="st5"><tspan y="16.1" x="8" textLength="52" style="white-space:pre">### {h3}</tspan></text></g><g ed:width="78" ed:height="24.5" ed:parentid="209" transform="matrix(1,0,0,1,609,510)" ed:layout="rightmap" id="229"><path stroke-linejoin="round" stroke="#454545" fill="none" d="M0,24.5L78,24.5"/><text class="st5"><tspan y="16.1" x="8" textLength="60" style="white-space:pre">#### {h4}</tspan></text></g><g ed:width="54" ed:height="24.5" ed:parentid="139" transform="matrix(1,0,0,1,342,494.5)" ed:layout="rightmap" id="223"><path stroke-linejoin="round" stroke="#454545" fill="none" d="M0,24.5L54,24.5"/><text class="st5"><tspan y="16.1" x="8" textLength="36" style="white-space:pre"># {h1}</tspan></text></g><g ed:width="42" ed:height="24.5" ed:parentid="217" transform="matrix(1,0,0,1,526,1079)" ed:layout="rightmap" id="205"><path stroke-linejoin="round" stroke="#454545" fill="none" d="M0,24.5L42,24.5"/><text class="st5"><tspan y="16.1" x="8" textLength="24" style="white-space:pre">unit</tspan></text></g><g ed:width="45" ed:height="24.5" ed:parentid="205" transform="matrix(1,0,0,1,595,1125.5)" ed:layout="rightmap" id="213"><path stroke-linejoin="round" stroke="#454545" fill="none" d="M0,24.5L45,24.5"/><text class="st5"><tspan y="16.1" x="8" textLength="27" style="white-space:pre">card</tspan></text></g><g ed:width="76" ed:height="24.5" ed:parentid="281" transform="matrix(1,0,0,1,423,1040.25)" ed:layout="rightmap" id="217"><path stroke-linejoin="round" stroke="#454545" fill="none" d="M0,24.5L76,24.5"/><text class="st5"><tspan y="16.1" x="8" textLength="58" style="white-space:pre">container</tspan></text></g><g ed:width="60" ed:height="24.5" ed:parentid="141" transform="matrix(1,0,0,1,348,955)" ed:layout="rightmap" id="221"><path stroke-linejoin="round" stroke="#454545" fill="none" d="M0,24.5L60,24.5"/><text class="st5"><tspan y="16.1" x="8" textLength="42" style="white-space:pre">header</tspan></text></g><g ed:width="76" ed:height="24.5" ed:parentid="221" transform="matrix(1,0,0,1,435,955)" ed:layout="rightmap" id="222"><path stroke-linejoin="round" stroke="#454545" fill="none" d="M0,24.5L76,24.5"/><text class="st5"><tspan y="16.1" x="8" textLength="58" style="white-space:pre">container</tspan></text></g><g ed:width="76" ed:height="24.5" ed:parentid="267" transform="matrix(1,0,0,1,431,1280.5)" ed:layout="rightmap" id="242"><path stroke-linejoin="round" stroke="#454545" fill="none" d="M0,24.5L76,24.5"/><text class="st5"><tspan y="16.1" x="8" textLength="58" style="white-space:pre">container</tspan></text></g><g ed:width="56" ed:height="24.5" ed:parentid="141" transform="matrix(1,0,0,1,348,1280.5)" ed:layout="rightmap" id="267"><path stroke-linejoin="round" stroke="#454545" fill="none" d="M0,24.5L56,24.5"/><text class="st5"><tspan y="16.1" x="8" textLength="38" style="white-space:pre">footer</tspan></text></g><g ed:width="48" ed:height="24.5" ed:parentid="141" transform="matrix(1,0,0,1,348,1040.25)" ed:layout="rightmap" id="281"><path stroke-linejoin="round" stroke="#454545" fill="none" d="M0,24.5L48,24.5"/><text class="st5"><tspan y="16.1" x="8" textLength="30" style="white-space:pre">main</tspan></text></g><g ed:width="45" ed:height="24.5" ed:parentid="222" transform="matrix(1,0,0,1,538,939.5)" ed:layout="rightmap" id="287"><path stroke-linejoin="round" stroke="#454545" fill="none" d="M0,24.5L45,24.5"/><text class="st5"><tspan y="16.1" x="8" textLength="27" style="white-space:pre">logo</tspan></text></g><g ed:width="40" ed:height="24.5" ed:parentid="222" transform="matrix(1,0,0,1,538,970.5)" ed:layout="rightmap" id="289"><path stroke-linejoin="round" stroke="#454545" fill="none" d="M0,24.5L40,24.5"/><text class="st5"><tspan y="16.1" x="8" textLength="22" style="white-space:pre">nav</tspan></text></g><g ed:width="96" ed:height="24.5" ed:parentid="198" transform="matrix(1,0,0,1,512,417)" ed:layout="rightmap" id="367"><path stroke-linejoin="round" stroke="#454545" fill="none" d="M0,24.5L96,24.5"/><text class="st5"><tspan y="16.1" x="8" textLength="78" style="white-space:pre">{h2-content}</tspan></text></g><g ed:width="42" ed:height="24.5" ed:parentid="213" transform="matrix(1,0,0,1,667,1156.5)" ed:layout="rightmap" id="374"><path stroke-linejoin="round" stroke="#454545" fill="none" d="M0,24.5L42,24.5"/><text class="st5"><tspan y="16.1" x="8" textLength="24" style="white-space:pre">pop</tspan></text></g><g ed:width="48" ed:height="24.5" ed:parentid="141" transform="matrix(1,0,0,1,348,877.5)" ed:layout="rightmap" id="380"><path stroke-linejoin="round" stroke="#454545" fill="none" d="M0,24.5L48,24.5"/><text class="st5"><tspan y="16.1" x="8" textLength="30" style="white-space:pre">head</tspan></text></g><g ed:width="44" ed:height="24.5" ed:parentid="380" transform="matrix(1,0,0,1,423,877.5)" ed:layout="rightmap" id="382"><path stroke-linejoin="round" stroke="#454545" fill="none" d="M0,24.5L44,24.5"/><text class="st5"><tspan y="16.1" x="8" textLength="26" style="white-space:pre">icon</tspan></text></g><g ed:width="90" ed:height="24.5" ed:parentid="223" transform="matrix(1,0,0,1,423,665)" ed:layout="rightmap" id="298"><path stroke-linejoin="round" stroke="#454545" fill="none" d="M0,24.5L90,24.5"/><text class="st5"><tspan y="16.1" x="8" textLength="72" style="white-space:pre">## CONFIG</tspan></text></g><g ed:width="104" ed:height="24.5" ed:parentid="298" transform="matrix(1,0,0,1,540,603)" ed:layout="rightmap" id="302"><path stroke-linejoin="round" stroke="#454545" fill="none" d="M0,24.5L104,24.5"/><text class="st5"><tspan y="16.1" x="8" textLength="86" style="white-space:pre">### keywords</tspan></text></g><g ed:width="41" ed:height="24.5" ed:parentid="380" transform="matrix(1,0,0,1,423,908.5)" ed:layout="rightmap" id="304"><path stroke-linejoin="round" stroke="#454545" fill="none" d="M0,24.5L41,24.5"/><text class="st5"><tspan y="16.1" x="8" textLength="23" style="white-space:pre">title</tspan></text></g><g ed:width="76" ed:height="24.5" ed:parentid="380" transform="matrix(1,0,0,1,423,846.5)" ed:layout="rightmap" id="306"><path stroke-linejoin="round" stroke="#454545" fill="none" d="M0,24.5L76,24.5"/><text class="st5"><tspan y="16.1" x="8" textLength="58" style="white-space:pre">keywords</tspan></text></g><g ed:width="96" ed:height="24.5" ed:parentid="223" transform="matrix(1,0,0,1,423,355)" ed:layout="rightmap" id="308"><path stroke-linejoin="round" stroke="#454545" fill="none" d="M0,24.5L96,24.5"/><text class="st5"><tspan y="16.1" x="8" textLength="78" style="white-space:pre">{h1-content}</tspan></text></g><g ed:width="120" ed:height="24.5" ed:parentid="217" transform="matrix(1,0,0,1,526,1001.5)" ed:layout="rightmap" id="310"><path stroke-linejoin="round" stroke="#454545" fill="none" d="M0,24.5L120,24.5"/><text class="st5"><tspan y="16.1" x="8" textLength="102" style="white-space:pre">page description</tspan></text></g><g ed:width="96" ed:height="24.5" ed:parentid="209" transform="matrix(1,0,0,1,609,479)" ed:layout="rightmap" id="312"><path stroke-linejoin="round" stroke="#454545" fill="none" d="M0,24.5L96,24.5"/><text class="st5"><tspan y="16.1" x="8" textLength="78" style="white-space:pre">{h3-content}</tspan></text></g><g ed:width="114" ed:height="24.5" ed:parentid="205" transform="matrix(1,0,0,1,595,1063.5)" ed:layout="rightmap" id="320"><path stroke-linejoin="round" stroke="#454545" fill="none" d="M0,24.5L114,24.5"/><text class="st5"><tspan y="16.1" x="8" textLength="96" style="white-space:pre">unit description</tspan></text></g><g ed:width="117" ed:height="24.5" ed:parentid="213" transform="matrix(1,0,0,1,667,1125.5)" ed:layout="rightmap" id="322"><path stroke-linejoin="round" stroke="#454545" fill="none" d="M0,24.5L117,24.5"/><text class="st5"><tspan y="16.1" x="8" textLength="99" style="white-space:pre">card description</tspan></text></g><g ed:width="69" ed:height="24.5" ed:parentid="205" transform="matrix(1,0,0,1,595,1032.5)" ed:layout="rightmap" id="326"><path stroke-linejoin="round" stroke="#454545" fill="none" d="M0,24.5L69,24.5"/><text class="st5"><tspan y="16.1" x="8" textLength="51" style="white-space:pre">unit title</tspan></text></g><g ed:width="72" ed:height="24.5" ed:parentid="213" transform="matrix(1,0,0,1,667,1094.5)" ed:layout="rightmap" id="328"><path stroke-linejoin="round" stroke="#454545" fill="none" d="M0,24.5L72,24.5"/><text class="st5"><tspan y="16.1" x="8" textLength="54" style="white-space:pre">card title</tspan></text></g><g ed:width="71" ed:height="24.5" ed:parentid="223" transform="matrix(1,0,0,1,423,324)" ed:layout="rightmap" id="332"><path stroke-linejoin="round" stroke="#454545" fill="none" d="M0,24.5L71,24.5"/><text class="st5"><tspan y="16.1" x="8" textLength="53" style="white-space:pre">{h1-title}</tspan></text></g><g ed:width="71" ed:height="24.5" ed:parentid="198" transform="matrix(1,0,0,1,512,386)" ed:layout="rightmap" id="334"><path stroke-linejoin="round" stroke="#454545" fill="none" d="M0,24.5L71,24.5"/><text class="st5"><tspan y="16.1" x="8" textLength="53" style="white-space:pre">{h2-title}</tspan></text></g><g ed:width="71" ed:height="24.5" ed:parentid="209" transform="matrix(1,0,0,1,609,448)" ed:layout="rightmap" id="336"><path stroke-linejoin="round" stroke="#454545" fill="none" d="M0,24.5L71,24.5"/><text class="st5"><tspan y="16.1" x="8" textLength="53" style="white-space:pre">{h3-title}</tspan></text></g><g ed:width="69" ed:height="24.5" ed:parentid="298" transform="matrix(1,0,0,1,540,541)" ed:layout="rightmap" id="338"><path stroke-linejoin="round" stroke="#454545" fill="none" d="M0,24.5L69,24.5"/><text class="st5"><tspan y="16.1" x="8" textLength="51" style="white-space:pre">### title</tspan></text></g><g ed:width="88" ed:height="24.5" ed:parentid="298" transform="matrix(1,0,0,1,540,649.5)" ed:layout="rightmap" id="227"><path stroke-linejoin="round" stroke="#454545" fill="none" d="M0,24.5L88,24.5"/><text class="st5"><tspan y="16.1" x="8" textLength="70" style="white-space:pre">### header</tspan></text></g><g ed:width="84" ed:height="24.5" ed:parentid="298" transform="matrix(1,0,0,1,540,789)" ed:layout="rightmap" id="231"><path stroke-linejoin="round" stroke="#454545" fill="none" d="M0,24.5L84,24.5"/><text class="st5"><tspan y="16.1" x="8" textLength="66" style="white-space:pre">### footer</tspan></text></g><g ed:width="88" ed:height="24.5" ed:parentid="298" transform="matrix(1,0,0,1,540,727)" ed:layout="rightmap" id="247"><path stroke-linejoin="round" stroke="#454545" fill="none" d="M0,24.5L88,24.5"/><text class="st5"><tspan y="16.1" x="8" textLength="70" style="white-space:pre">### ending</tspan></text></g><g ed:width="74" ed:height="24.5" ed:parentid="247" transform="matrix(1,0,0,1,655,696)" ed:layout="rightmap" id="249"><path stroke-linejoin="round" stroke="#454545" fill="none" d="M0,24.5L74,24.5"/><text class="st5"><tspan y="16.1" x="8" textLength="56" style="white-space:pre">#### left</tspan></text></g><g ed:width="93" ed:height="24.5" ed:parentid="247" transform="matrix(1,0,0,1,655,727)" ed:layout="rightmap" id="251"><path stroke-linejoin="round" stroke="#454545" fill="none" d="M0,24.5L93,24.5"/><text class="st5"><tspan y="16.1" x="8" textLength="75" style="white-space:pre">#### center</tspan></text></g><g ed:width="83" ed:height="24.5" ed:parentid="247" transform="matrix(1,0,0,1,655,758)" ed:layout="rightmap" id="253"><path stroke-linejoin="round" stroke="#454545" fill="none" d="M0,24.5L83,24.5"/><text class="st5"><tspan y="16.1" x="8" textLength="65" style="white-space:pre">#### right</tspan></text></g><g ed:width="60" ed:height="24.5" ed:parentid="141" transform="matrix(1,0,0,1,348,1218.5)" ed:layout="rightmap" id="255"><path stroke-linejoin="round" stroke="#454545" fill="none" d="M0,24.5L60,24.5"/><text class="st5"><tspan y="16.1" x="8" textLength="42" style="white-space:pre">ending</tspan></text></g><g ed:width="76" ed:height="24.5" ed:parentid="255" transform="matrix(1,0,0,1,435,1218.5)" ed:layout="rightmap" id="259"><path stroke-linejoin="round" stroke="#454545" fill="none" d="M0,24.5L76,24.5"/><text class="st5"><tspan y="16.1" x="8" textLength="58" style="white-space:pre">container</tspan></text></g><g ed:width="38" ed:height="24.5" ed:parentid="259" transform="matrix(1,0,0,1,538,1187.5)" ed:layout="rightmap" id="260"><path stroke-linejoin="round" stroke="#454545" fill="none" d="M0,24.5L38,24.5"/><text class="st5"><tspan y="16.1" x="8" textLength="20" style="white-space:pre">left</tspan></text></g><g ed:width="57" ed:height="24.5" ed:parentid="259" transform="matrix(1,0,0,1,538,1218.5)" ed:layout="rightmap" id="261"><path stroke-linejoin="round" stroke="#454545" fill="none" d="M0,24.5L57,24.5"/><text class="st5"><tspan y="16.1" x="8" textLength="39" style="white-space:pre">center</tspan></text></g><g ed:width="47" ed:height="24.5" ed:parentid="259" transform="matrix(1,0,0,1,538,1249.5)" ed:layout="rightmap" id="263"><path stroke-linejoin="round" stroke="#454545" fill="none" d="M0,24.5L47,24.5"/><text class="st5"><tspan y="16.1" x="8" textLength="29" style="white-space:pre">right</tspan></text></g></svg>